<svg width="512" height="512" viewBox="0 0 512 512" xmlns="http://www.w3.org/2000/svg">
  <!-- Icon: Arched Window (Guichet) - Transparent Version -->
  <g transform="translate(196, 110)">
    <!-- Subtle Frame Shadow -->
    <path d="M0 160 V64 C0 28.6569 28.6569 0 60 0 C91.3431 0 120 28.6569 120 64 V160 H0Z" fill="#1C1917" opacity="0.05"/>
    
    <!-- Outer Frame (Deep Navy/Charcoal) -->
    <path d="M4 156 V64 C4 33.1371 29.1371 8 60 8 C90.8629 8 116 33.1371 116 64 V156 H4Z" fill="#1E293B"/>
    
    <!-- Window Glow: Amber/Terracotta Radial Gradient -->
    <defs>
      <radialGradient id="guichet-glow" cx="50%" cy="40%" r="60%" fx="50%" fy="60%">
        <stop offset="0%" stop-color="#FDE68A" /> <!-- Amber 200 -->
        <stop offset="60%" stop-color="#D97706" /> <!-- Amber 600 -->
        <stop offset="100%" stop-color="#92400E" /> <!-- Amber 800 -->
      </radialGradient>
      <!-- Subtle inner shadow for the window hole -->
      <filter id="inner-shadow" x="-20%" y="-20%" width="140%" height="140%">
        <feGaussianBlur in="SourceAlpha" stdDeviation="4" result="blur"/>
        <feOffset dx="0" dy="2"/>
        <feComposite in2="SourceAlpha" operator="arithmetic" k2="-1" k3="1" result="shadow"/>
        <feColorMatrix type="matrix" values="0 0 0 0 0  0 0 0 0 0  0 0 0 0 0  0 0 0 0.2 0"/>
      </filter>
    </defs>
    
    <!-- The Window Pane -->
    <path d="M12 148 V64 C12 37.4903 33.4903 16 60 16 C86.5097 16 108 37.4903 108 64 V148 H12Z" fill="url(#guichet-glow)" filter="url(#inner-shadow)"/>
    
    <!-- Subtle Ledge/Sill -->
    <rect x="0" y="156" width="120" height="4" fill="#1E293B" rx="1"/>
  </g>
  
  <!-- Wordmark: "GUICHET" in a refined serif -->
  <text 
    x="256" y="420" 
    text-anchor="middle" 
    fill="#1E293B" 
    font-family="Georgia, 'Times New Roman', serif" 
    font-size="64" 
    font-weight="700"
    letter-spacing="12"
  >GUICHET</text>
</svg>
